<svg xmlns="http://www.w3.org/2000/svg" viewBox="0 0 655.78 641.68"><defs><style>.cls-1{fill:#e3b42a;}</style></defs><g id="Layer_2" data-name="Layer 2"><g id="Layer_1-2" data-name="Layer 1"><circle class="cls-1" cx="408.98" cy="400.17" r="3.53"/><path class="cls-1" d="M327.89,158.66a3.53,3.53,0,1,0,3.53,3.52A3.52,3.52,0,0,0,327.89,158.66Z"/><path class="cls-1" d="M409,277.65a3.53,3.53,0,1,0,3.53,3.53A3.53,3.53,0,0,0,409,277.65Z"/><circle class="cls-1" cx="408.98" cy="320.84" r="3.53"/><path class="cls-1" d="M449.53,476a3.53,3.53,0,1,0,3.52,3.53A3.53,3.53,0,0,0,449.53,476Z"/><circle class="cls-1" cx="408.98" cy="519.16" r="3.53"/><path class="cls-1" d="M409,476a3.53,3.53,0,1,0,3.53,3.53A3.53,3.53,0,0,0,409,476Z"/><path class="cls-1" d="M409,119a3.53,3.53,0,1,0,3.53,3.53A3.53,3.53,0,0,0,409,119Z"/><circle class="cls-1" cx="408.98" cy="558.83" r="3.53"/><circle class="cls-1" cx="408.98" cy="82.85" r="3.53"/><circle class="cls-1" cx="408.98" cy="43.19" r="3.53"/><circle class="cls-1" cx="408.98" cy="201.85" r="3.53"/><path class="cls-1" d="M409,158.66a3.53,3.53,0,1,0,3.53,3.52A3.53,3.53,0,0,0,409,158.66Z"/><circle class="cls-1" cx="408.98" cy="241.51" r="3.53"/><circle class="cls-1" cx="449.53" cy="320.84" r="3.53" transform="translate(-45.4 75.77) rotate(-9.17)"/><circle class="cls-1" cx="449.53" cy="241.51" r="3.53" transform="translate(-32.75 74.76) rotate(-9.17)"/><circle class="cls-1" cx="449.53" cy="201.85" r="3.53" transform="translate(-26.43 74.25) rotate(-9.17)"/><path class="cls-1" d="M449.53,277.65a3.53,3.53,0,1,0,3.52,3.53A3.53,3.53,0,0,0,449.53,277.65Z"/><circle class="cls-1" cx="449.53" cy="400.17" r="3.53" transform="translate(-58.05 76.78) rotate(-9.17)"/><circle class="cls-1" cx="449.53" cy="439.83" r="3.53" transform="translate(-64.37 77.29) rotate(-9.17)"/><circle class="cls-1" cx="449.53" cy="360.5" r="3.53" transform="translate(-51.72 76.28) rotate(-9.17)"/><circle class="cls-1" cx="408.98" cy="3.53" r="3.53"/><circle class="cls-1" cx="449.53" cy="3.53" r="3.53" transform="translate(5.19 71.71) rotate(-9.17)"/><circle class="cls-1" cx="449.53" cy="43.19" r="3.53" transform="translate(-1.14 72.22) rotate(-9.17)"/><circle class="cls-1" cx="408.98" cy="638.15" r="3.53"/><circle class="cls-1" cx="408.98" cy="598.49" r="3.53"/><path class="cls-1" d="M449.53,158.66a3.53,3.53,0,1,0,3.52,3.52A3.53,3.53,0,0,0,449.53,158.66Z"/><circle class="cls-1" cx="449.53" cy="82.85" r="3.53" transform="translate(-7.46 72.73) rotate(-9.17)"/><path class="cls-1" d="M449.53,119a3.53,3.53,0,1,0,3.52,3.53A3.53,3.53,0,0,0,449.53,119Z"/><circle class="cls-1" cx="408.98" cy="439.83" r="3.53"/><circle class="cls-1" cx="327.89" cy="558.83" r="3.53"/><circle class="cls-1" cx="327.89" cy="519.16" r="3.53"/><path class="cls-1" d="M327.89,476a3.53,3.53,0,1,0,3.53,3.53A3.52,3.52,0,0,0,327.89,476Z"/><circle class="cls-1" cx="327.89" cy="598.49" r="3.53"/><path class="cls-1" d="M368.44,0A3.53,3.53,0,1,0,372,3.53,3.53,3.53,0,0,0,368.44,0Z"/><path class="cls-1" d="M368.44,39.66A3.53,3.53,0,1,0,372,43.19,3.53,3.53,0,0,0,368.44,39.66Z"/><circle class="cls-1" cx="327.89" cy="638.15" r="3.53"/><circle class="cls-1" cx="327.89" cy="439.83" r="3.53"/><circle class="cls-1" cx="327.89" cy="241.51" r="3.53"/><path class="cls-1" d="M327.89,277.65a3.53,3.53,0,1,0,3.53,3.53A3.52,3.52,0,0,0,327.89,277.65Z"/><circle class="cls-1" cx="327.89" cy="201.85" r="3.53"/><circle class="cls-1" cx="327.89" cy="360.5" r="3.53"/><circle class="cls-1" cx="327.89" cy="320.84" r="3.53"/><circle class="cls-1" cx="327.89" cy="400.17" r="3.53"/><path class="cls-1" d="M368.44,396.64a3.53,3.53,0,1,0,3.52,3.53A3.53,3.53,0,0,0,368.44,396.64Z"/><path class="cls-1" d="M368.44,436.31a3.53,3.53,0,1,0,3.52,3.52A3.53,3.53,0,0,0,368.44,436.31Z"/><path class="cls-1" d="M368.44,595a3.53,3.53,0,1,0,3.52,3.53A3.53,3.53,0,0,0,368.44,595Z"/><path class="cls-1" d="M368.44,476A3.53,3.53,0,1,0,372,479.5,3.53,3.53,0,0,0,368.44,476Z"/><path class="cls-1" d="M368.44,634.63a3.53,3.53,0,1,0,3.52,3.52A3.53,3.53,0,0,0,368.44,634.63Z"/><path class="cls-1" d="M368.44,357A3.53,3.53,0,1,0,372,360.5,3.53,3.53,0,0,0,368.44,357Z"/><path class="cls-1" d="M368.44,555.3a3.53,3.53,0,1,0,3.52,3.53A3.53,3.53,0,0,0,368.44,555.3Z"/><path class="cls-1" d="M368.44,515.64a3.53,3.53,0,1,0,3.52,3.52A3.52,3.52,0,0,0,368.44,515.64Z"/><path class="cls-1" d="M368.44,119a3.53,3.53,0,1,0,3.52,3.53A3.53,3.53,0,0,0,368.44,119Z"/><path class="cls-1" d="M368.44,158.66a3.53,3.53,0,1,0,3.52,3.52A3.53,3.53,0,0,0,368.44,158.66Z"/><path class="cls-1" d="M368.44,79.33A3.53,3.53,0,1,0,372,82.85,3.53,3.53,0,0,0,368.44,79.33Z"/><path class="cls-1" d="M368.44,317.31a3.53,3.53,0,1,0,3.52,3.53A3.53,3.53,0,0,0,368.44,317.31Z"/><path class="cls-1" d="M368.44,198.32a3.53,3.53,0,1,0,3.52,3.53A3.53,3.53,0,0,0,368.44,198.32Z"/><path class="cls-1" d="M368.44,277.65a3.53,3.53,0,1,0,3.52,3.53A3.53,3.53,0,0,0,368.44,277.65Z"/><path class="cls-1" d="M368.44,238a3.53,3.53,0,1,0,3.52,3.52A3.52,3.52,0,0,0,368.44,238Z"/><circle class="cls-1" cx="408.98" cy="360.5" r="3.53"/><circle class="cls-1" cx="571.17" cy="519.16" r="3.53"/><circle class="cls-1" cx="571.17" cy="320.84" r="3.53"/><circle class="cls-1" cx="571.17" cy="400.17" r="3.53"/><circle class="cls-1" cx="571.17" cy="558.83" r="3.53"/><path class="cls-1" d="M571.17,277.65a3.53,3.53,0,1,0,3.52,3.53A3.53,3.53,0,0,0,571.17,277.65Z"/><path class="cls-1" d="M571.17,476a3.53,3.53,0,1,0,3.52,3.53A3.53,3.53,0,0,0,571.17,476Z"/><circle class="cls-1" cx="571.17" cy="439.83" r="3.53"/><circle class="cls-1" cx="571.17" cy="360.5" r="3.53"/><circle class="cls-1" cx="571.17" cy="241.51" r="3.53"/><circle class="cls-1" cx="530.62" cy="519.16" r="3.53"/><circle class="cls-1" cx="530.62" cy="558.83" r="3.53"/><circle class="cls-1" cx="571.17" cy="82.85" r="3.53"/><path class="cls-1" d="M571.17,119a3.53,3.53,0,1,0,3.52,3.53A3.53,3.53,0,0,0,571.17,119Z"/><circle class="cls-1" cx="571.17" cy="201.85" r="3.53"/><path class="cls-1" d="M571.17,158.66a3.53,3.53,0,1,0,3.52,3.52A3.53,3.53,0,0,0,571.17,158.66Z"/><path class="cls-1" d="M611.71,238a3.53,3.53,0,1,0,3.53,3.52A3.51,3.51,0,0,0,611.71,238Z"/><path class="cls-1" d="M652.26,277.65a3.53,3.53,0,1,0,3.52,3.53A3.53,3.53,0,0,0,652.26,277.65Z"/><path class="cls-1" d="M611.71,436.31a3.53,3.53,0,1,0,3.53,3.52A3.52,3.52,0,0,0,611.71,436.31Z"/><circle class="cls-1" cx="449.53" cy="519.16" r="3.53" transform="translate(-77.02 78.31) rotate(-9.17)"/><circle class="cls-1" cx="652.26" cy="400.17" r="3.53" transform="translate(-3.32 5.47) rotate(-0.48)"/><circle class="cls-1" cx="652.26" cy="360.5" r="3.53" transform="translate(-2.99 5.46) rotate(-0.48)"/><circle class="cls-1" cx="652.26" cy="320.84" r="3.53" transform="translate(-2.66 5.46) rotate(-0.48)"/><path class="cls-1" d="M611.71,396.64a3.53,3.53,0,1,0,3.53,3.53A3.52,3.52,0,0,0,611.71,396.64Z"/><path class="cls-1" d="M530.62,476a3.53,3.53,0,1,0,3.53,3.53A3.53,3.53,0,0,0,530.62,476Z"/><path class="cls-1" d="M611.71,198.32a3.53,3.53,0,1,0,3.53,3.53A3.52,3.52,0,0,0,611.71,198.32Z"/><path class="cls-1" d="M611.71,158.66a3.53,3.53,0,1,0,3.53,3.52A3.52,3.52,0,0,0,611.71,158.66Z"/><path class="cls-1" d="M611.65,126c-1.06-1.54-2.17-3-3.25-4.57a3.39,3.39,0,0,0-.21,1.06A3.51,3.51,0,0,0,611.65,126Z"/><path class="cls-1" d="M611.71,277.65a3.53,3.53,0,1,0,3.53,3.53A3.52,3.52,0,0,0,611.71,277.65Z"/><path class="cls-1" d="M611.71,357a3.53,3.53,0,1,0,3.53,3.52A3.52,3.52,0,0,0,611.71,357Z"/><path class="cls-1" d="M611.71,317.31a3.53,3.53,0,1,0,3.53,3.53A3.52,3.52,0,0,0,611.71,317.31Z"/><path class="cls-1" d="M611.71,476a3.53,3.53,0,1,0,3.53,3.53A3.52,3.52,0,0,0,611.71,476Z"/><circle class="cls-1" cx="490.07" cy="241.51" r="3.53"/><circle class="cls-1" cx="490.07" cy="201.85" r="3.53"/><path class="cls-1" d="M490.07,277.65a3.53,3.53,0,1,0,3.53,3.53A3.53,3.53,0,0,0,490.07,277.65Z"/><circle class="cls-1" cx="490.07" cy="400.17" r="3.53"/><circle class="cls-1" cx="490.07" cy="320.84" r="3.53"/><path class="cls-1" d="M490.07,158.66a3.53,3.53,0,1,0,3.53,3.52A3.53,3.53,0,0,0,490.07,158.66Z"/><circle class="cls-1" cx="490.07" cy="360.5" r="3.53"/><circle class="cls-1" cx="490.07" cy="82.85" r="3.53"/><circle class="cls-1" cx="449.53" cy="638.15" r="3.53" transform="translate(-95.99 79.83) rotate(-9.17)"/><circle class="cls-1" cx="530.62" cy="439.83" r="3.53"/><circle class="cls-1" cx="449.53" cy="558.83" r="3.53" transform="translate(-83.34 78.81) rotate(-9.17)"/><circle class="cls-1" cx="490.07" cy="43.19" r="3.53"/><path class="cls-1" d="M490.07,119a3.53,3.53,0,1,0,3.53,3.53A3.53,3.53,0,0,0,490.07,119Z"/><circle class="cls-1" cx="490.07" cy="439.83" r="3.53"/><circle class="cls-1" cx="449.53" cy="598.49" r="3.53" transform="translate(-89.66 79.32) rotate(-9.17)"/><path class="cls-1" d="M530.62,277.65a3.53,3.53,0,1,0,3.53,3.53A3.53,3.53,0,0,0,530.62,277.65Z"/><circle class="cls-1" cx="530.62" cy="241.51" r="3.53"/><circle class="cls-1" cx="530.62" cy="201.85" r="3.53"/><circle class="cls-1" cx="530.62" cy="360.5" r="3.53"/><circle class="cls-1" cx="530.62" cy="320.84" r="3.53"/><circle class="cls-1" cx="530.62" cy="400.17" r="3.53"/><path class="cls-1" d="M530.62,158.66a3.53,3.53,0,1,0,3.53,3.52A3.53,3.53,0,0,0,530.62,158.66Z"/><path class="cls-1" d="M490.07,476a3.53,3.53,0,1,0,3.53,3.53A3.53,3.53,0,0,0,490.07,476Z"/><path class="cls-1" d="M530.62,119a3.53,3.53,0,1,0,3.53,3.53A3.53,3.53,0,0,0,530.62,119Z"/><circle class="cls-1" cx="490.07" cy="519.16" r="3.53"/><circle class="cls-1" cx="490.07" cy="558.83" r="3.53"/><circle class="cls-1" cx="490.07" cy="598.49" r="3.53"/><path class="cls-1" d="M530.62,46.72a3.51,3.51,0,0,0,3-1.84c-1.85-1.38-3.77-2.67-5.64-4a3.49,3.49,0,0,0,2.6,5.86Z"/><circle class="cls-1" cx="530.62" cy="82.85" r="3.53"/><path class="cls-1" d="M287.35,476a3.53,3.53,0,1,0,3.52,3.53A3.53,3.53,0,0,0,287.35,476Z"/><path class="cls-1" d="M125.16,158.66a3.53,3.53,0,1,0,3.53,3.52A3.53,3.53,0,0,0,125.16,158.66Z"/><path class="cls-1" d="M125.16,357a3.53,3.53,0,1,0,3.53,3.52A3.53,3.53,0,0,0,125.16,357Z"/><path class="cls-1" d="M125.16,119a3.53,3.53,0,1,0,3.53,3.53A3.53,3.53,0,0,0,125.16,119Z"/><path class="cls-1" d="M125.16,277.65a3.53,3.53,0,1,0,3.53,3.53A3.53,3.53,0,0,0,125.16,277.65Z"/><path class="cls-1" d="M125.16,317.31a3.53,3.53,0,1,0,3.53,3.53A3.53,3.53,0,0,0,125.16,317.31Z"/><path class="cls-1" d="M125.16,79.33a3.53,3.53,0,1,0,3.53,3.52A3.53,3.53,0,0,0,125.16,79.33Z"/><path class="cls-1" d="M125.16,238a3.53,3.53,0,1,0,3.53,3.52A3.52,3.52,0,0,0,125.16,238Z"/><path class="cls-1" d="M125.16,198.32a3.53,3.53,0,1,0,3.53,3.53A3.53,3.53,0,0,0,125.16,198.32Z"/><circle class="cls-1" cx="84.62" cy="360.5" r="3.53" transform="translate(-132.48 60.52) rotate(-22.68)"/><circle class="cls-1" cx="84.62" cy="400.17" r="3.53" transform="translate(-147.78 63.59) rotate(-22.68)"/><circle class="cls-1" cx="84.62" cy="320.84" r="3.53" transform="translate(-117.18 57.45) rotate(-22.68)"/><circle class="cls-1" cx="84.62" cy="439.83" r="3.53" transform="translate(-163.07 66.65) rotate(-22.68)"/><circle class="cls-1" cx="84.62" cy="558.83" r="3.53" transform="translate(-208.96 75.86) rotate(-22.68)"/><path class="cls-1" d="M84.62,476a3.53,3.53,0,1,0,3.52,3.53A3.53,3.53,0,0,0,84.62,476Z"/><circle class="cls-1" cx="84.62" cy="519.16" r="3.53" transform="translate(-193.67 72.79) rotate(-22.68)"/><path class="cls-1" d="M165.71,277.65a3.53,3.53,0,1,0,3.52,3.53A3.53,3.53,0,0,0,165.71,277.65Z"/><circle class="cls-1" cx="165.71" cy="201.85" r="3.53"/><path class="cls-1" d="M165.71,158.66a3.53,3.53,0,1,0,3.52,3.52A3.53,3.53,0,0,0,165.71,158.66Z"/><path class="cls-1" d="M165.71,119a3.53,3.53,0,1,0,3.52,3.53A3.53,3.53,0,0,0,165.71,119Z"/><circle class="cls-1" cx="165.71" cy="360.5" r="3.53"/><path class="cls-1" d="M125.16,396.64a3.53,3.53,0,1,0,3.53,3.53A3.53,3.53,0,0,0,125.16,396.64Z"/><circle class="cls-1" cx="165.71" cy="82.85" r="3.53"/><path class="cls-1" d="M84.62,277.65a3.53,3.53,0,1,0,3.52,3.53A3.53,3.53,0,0,0,84.62,277.65Z"/><circle class="cls-1" cx="165.71" cy="320.84" r="3.53"/><path class="cls-1" d="M125.16,476a3.53,3.53,0,1,0,3.53,3.53A3.53,3.53,0,0,0,125.16,476Z"/><path class="cls-1" d="M125.16,436.31a3.53,3.53,0,1,0,3.53,3.52A3.53,3.53,0,0,0,125.16,436.31Z"/><path class="cls-1" d="M125.16,555.3a3.53,3.53,0,1,0,3.53,3.53A3.53,3.53,0,0,0,125.16,555.3Z"/><path class="cls-1" d="M125.16,46.72a3.5,3.5,0,0,0,2.61-5.86c-1.88,1.35-3.8,2.64-5.64,4A3.47,3.47,0,0,0,125.16,46.72Z"/><path class="cls-1" d="M125.16,515.64a3.53,3.53,0,1,0,3.53,3.52A3.52,3.52,0,0,0,125.16,515.64Z"/><circle class="cls-1" cx="165.71" cy="43.19" r="3.53"/><circle class="cls-1" cx="165.71" cy="241.51" r="3.53"/><path class="cls-1" d="M3.53,403.69A3.53,3.53,0,1,0,0,400.17,3.52,3.52,0,0,0,3.53,403.69Z"/><path class="cls-1" d="M3.53,238a3.53,3.53,0,1,0,3.52,3.52A3.52,3.52,0,0,0,3.53,238Z"/><path class="cls-1" d="M7.05,201.85a3.46,3.46,0,0,0-1.21-2.61c-.76,2-1.52,4.07-2.25,6.12A3.52,3.52,0,0,0,7.05,201.85Z"/><path class="cls-1" d="M44.14,515.65c1,1.54,2.16,3.05,3.24,4.57a3.39,3.39,0,0,0,.22-1.06A3.52,3.52,0,0,0,44.14,515.65Z"/><path class="cls-1" d="M3.53,317.31a3.53,3.53,0,1,0,3.52,3.53A3.53,3.53,0,0,0,3.53,317.31Z"/><path class="cls-1" d="M3.53,357a3.53,3.53,0,1,0,3.52,3.52A3.53,3.53,0,0,0,3.53,357Z"/><path class="cls-1" d="M3.53,277.65a3.53,3.53,0,1,0,3.52,3.53A3.53,3.53,0,0,0,3.53,277.65Z"/><path class="cls-1" d="M7.05,439.83a3.52,3.52,0,0,0-3.46-3.51q1.1,3.07,2.25,6.12A3.46,3.46,0,0,0,7.05,439.83Z"/><circle class="cls-1" cx="652.26" cy="241.51" r="3.53" transform="translate(-2 5.46) rotate(-0.48)"/><circle class="cls-1" cx="84.62" cy="241.51" r="3.53" transform="translate(-86.59 51.31) rotate(-22.68)"/><path class="cls-1" d="M648.73,201.85a3.52,3.52,0,0,0,3.46,3.51q-1.1-3.08-2.25-6.12A3.46,3.46,0,0,0,648.73,201.85Z"/><path class="cls-1" d="M530.62,595a3.49,3.49,0,0,0-2.6,5.86c1.87-1.35,3.79-2.64,5.64-4A3.49,3.49,0,0,0,530.62,595Z"/><path class="cls-1" d="M608.19,519.16a3.39,3.39,0,0,0,.21,1.06c1.08-1.52,2.19-3,3.25-4.57A3.51,3.51,0,0,0,608.19,519.16Z"/><path class="cls-1" d="M125.16,595a3.47,3.47,0,0,0-3,1.84c1.84,1.38,3.76,2.67,5.64,4a3.5,3.5,0,0,0-2.61-5.86Z"/><path class="cls-1" d="M648.73,439.83a3.46,3.46,0,0,0,1.21,2.61q1.15-3,2.25-6.12A3.52,3.52,0,0,0,648.73,439.83Z"/><path class="cls-1" d="M44.07,476a3.53,3.53,0,1,0,3.53,3.53A3.52,3.52,0,0,0,44.07,476Z"/><path class="cls-1" d="M47.6,122.52a3.39,3.39,0,0,0-.22-1.06c-1.08,1.53-2.18,3-3.24,4.57A3.52,3.52,0,0,0,47.6,122.52Z"/><path class="cls-1" d="M44.07,436.31a3.53,3.53,0,1,0,3.53,3.52A3.52,3.52,0,0,0,44.07,436.31Z"/><circle class="cls-1" cx="84.62" cy="82.85" r="3.53" transform="translate(-25.41 39.04) rotate(-22.68)"/><path class="cls-1" d="M84.62,119a3.53,3.53,0,1,0,3.52,3.53A3.53,3.53,0,0,0,84.62,119Z"/><circle class="cls-1" cx="84.62" cy="201.85" r="3.53" transform="translate(-71.3 48.25) rotate(-22.68)"/><path class="cls-1" d="M84.62,158.66a3.53,3.53,0,1,0,3.52,3.52A3.53,3.53,0,0,0,84.62,158.66Z"/><path class="cls-1" d="M44.07,198.32a3.53,3.53,0,1,0,3.53,3.53A3.52,3.52,0,0,0,44.07,198.32Z"/><path class="cls-1" d="M44.07,238a3.53,3.53,0,1,0,3.53,3.52A3.51,3.51,0,0,0,44.07,238Z"/><path class="cls-1" d="M44.07,396.64a3.53,3.53,0,1,0,3.53,3.53A3.52,3.52,0,0,0,44.07,396.64Z"/><path class="cls-1" d="M44.07,158.66a3.53,3.53,0,1,0,3.53,3.52A3.52,3.52,0,0,0,44.07,158.66Z"/><path class="cls-1" d="M44.07,277.65a3.53,3.53,0,1,0,3.53,3.53A3.52,3.52,0,0,0,44.07,277.65Z"/><path class="cls-1" d="M44.07,317.31a3.53,3.53,0,1,0,3.53,3.53A3.52,3.52,0,0,0,44.07,317.31Z"/><path class="cls-1" d="M44.07,357a3.53,3.53,0,1,0,3.53,3.52A3.52,3.52,0,0,0,44.07,357Z"/><circle class="cls-1" cx="206.25" cy="558.83" r="3.53"/><path class="cls-1" d="M246.8,595a3.53,3.53,0,1,0,3.53,3.53A3.53,3.53,0,0,0,246.8,595Z"/><path class="cls-1" d="M246.8,634.63a3.53,3.53,0,1,0,3.53,3.52A3.53,3.53,0,0,0,246.8,634.63Z"/><circle class="cls-1" cx="287.35" cy="3.53" r="3.53"/><path class="cls-1" d="M287.35,119a3.53,3.53,0,1,0,3.52,3.53A3.53,3.53,0,0,0,287.35,119Z"/><path class="cls-1" d="M246.8,555.3a3.53,3.53,0,1,0,3.53,3.53A3.53,3.53,0,0,0,246.8,555.3Z"/><circle class="cls-1" cx="287.35" cy="82.85" r="3.53"/><circle class="cls-1" cx="287.35" cy="43.19" r="3.53"/><path class="cls-1" d="M246.8,396.64a3.53,3.53,0,1,0,3.53,3.53A3.53,3.53,0,0,0,246.8,396.64Z"/><path class="cls-1" d="M287.35,158.66a3.53,3.53,0,1,0,3.52,3.52A3.53,3.53,0,0,0,287.35,158.66Z"/><path class="cls-1" d="M246.8,357a3.53,3.53,0,1,0,3.53,3.52A3.53,3.53,0,0,0,246.8,357Z"/><path class="cls-1" d="M246.8,317.31a3.53,3.53,0,1,0,3.53,3.53A3.53,3.53,0,0,0,246.8,317.31Z"/><path class="cls-1" d="M246.8,476a3.53,3.53,0,1,0,3.53,3.53A3.53,3.53,0,0,0,246.8,476Z"/><path class="cls-1" d="M246.8,515.64a3.53,3.53,0,1,0,3.53,3.52A3.52,3.52,0,0,0,246.8,515.64Z"/><path class="cls-1" d="M246.8,436.31a3.53,3.53,0,1,0,3.53,3.52A3.53,3.53,0,0,0,246.8,436.31Z"/><circle class="cls-1" cx="327.89" cy="43.19" r="3.53"/><circle class="cls-1" cx="287.35" cy="598.49" r="3.53"/><circle class="cls-1" cx="287.35" cy="638.15" r="3.53"/><circle class="cls-1" cx="287.35" cy="519.16" r="3.53"/><circle class="cls-1" cx="287.35" cy="558.83" r="3.53"/><circle class="cls-1" cx="327.89" cy="82.85" r="3.53"/><circle class="cls-1" cx="327.89" cy="3.53" r="3.53"/><path class="cls-1" d="M246.8,277.65a3.53,3.53,0,1,0,3.53,3.53A3.53,3.53,0,0,0,246.8,277.65Z"/><circle class="cls-1" cx="287.35" cy="439.83" r="3.53"/><circle class="cls-1" cx="287.35" cy="320.84" r="3.53"/><circle class="cls-1" cx="287.35" cy="201.85" r="3.53"/><circle class="cls-1" cx="287.35" cy="241.51" r="3.53"/><path class="cls-1" d="M287.35,277.65a3.53,3.53,0,1,0,3.52,3.53A3.53,3.53,0,0,0,287.35,277.65Z"/><circle class="cls-1" cx="287.35" cy="400.17" r="3.53"/><circle class="cls-1" cx="287.35" cy="360.5" r="3.53"/><path class="cls-1" d="M327.89,119a3.53,3.53,0,1,0,3.53,3.53A3.52,3.52,0,0,0,327.89,119Z"/><path class="cls-1" d="M206.25,158.66a3.53,3.53,0,1,0,3.53,3.52A3.53,3.53,0,0,0,206.25,158.66Z"/><path class="cls-1" d="M206.25,119a3.53,3.53,0,1,0,3.53,3.53A3.53,3.53,0,0,0,206.25,119Z"/><circle class="cls-1" cx="206.25" cy="43.19" r="3.53"/><circle class="cls-1" cx="206.25" cy="320.84" r="3.53"/><circle class="cls-1" cx="206.25" cy="201.85" r="3.53"/><path class="cls-1" d="M206.25,277.65a3.53,3.53,0,1,0,3.53,3.53A3.53,3.53,0,0,0,206.25,277.65Z"/><circle class="cls-1" cx="206.25" cy="241.51" r="3.53"/><circle class="cls-1" cx="206.25" cy="82.85" r="3.53"/><circle class="cls-1" cx="165.71" cy="519.16" r="3.53"/><path class="cls-1" d="M165.71,476a3.53,3.53,0,1,0,3.52,3.53A3.53,3.53,0,0,0,165.71,476Z"/><circle class="cls-1" cx="206.25" cy="3.53" r="3.53"/><circle class="cls-1" cx="165.71" cy="439.83" r="3.53"/><circle class="cls-1" cx="165.71" cy="598.49" r="3.53"/><circle class="cls-1" cx="165.71" cy="558.83" r="3.53"/><path class="cls-1" d="M246.8,119a3.53,3.53,0,1,0,3.53,3.53A3.53,3.53,0,0,0,246.8,119Z"/><path class="cls-1" d="M246.8,39.66a3.53,3.53,0,1,0,3.53,3.53A3.53,3.53,0,0,0,246.8,39.66Z"/><path class="cls-1" d="M246.8,79.33a3.53,3.53,0,1,0,3.53,3.52A3.53,3.53,0,0,0,246.8,79.33Z"/><path class="cls-1" d="M246.8,0a3.53,3.53,0,1,0,3.53,3.53A3.53,3.53,0,0,0,246.8,0Z"/><circle class="cls-1" cx="206.25" cy="598.49" r="3.53"/><circle class="cls-1" cx="206.25" cy="360.5" r="3.53"/><path class="cls-1" d="M246.8,158.66a3.53,3.53,0,1,0,3.53,3.52A3.53,3.53,0,0,0,246.8,158.66Z"/><path class="cls-1" d="M246.8,238a3.53,3.53,0,1,0,3.53,3.52A3.52,3.52,0,0,0,246.8,238Z"/><path class="cls-1" d="M246.8,198.32a3.53,3.53,0,1,0,3.53,3.53A3.53,3.53,0,0,0,246.8,198.32Z"/><circle class="cls-1" cx="206.25" cy="439.83" r="3.53"/><path class="cls-1" d="M206.25,476a3.53,3.53,0,1,0,3.53,3.53A3.53,3.53,0,0,0,206.25,476Z"/><circle class="cls-1" cx="206.25" cy="400.17" r="3.53"/><circle class="cls-1" cx="206.25" cy="638.15" r="3.53"/><circle class="cls-1" cx="165.71" cy="400.17" r="3.53"/><circle class="cls-1" cx="206.25" cy="519.16" r="3.53"/></g></g></svg>