<svg xmlns="http://www.w3.org/2000/svg" viewBox="0 0 81.61 79.36"><g id="Layer_2" data-name="Layer 2"><g id="Layer_1-2" data-name="Layer 1"><rect x="28.95" y="10.35" width="5.15" height="2"></rect><rect x="53.69" y="10.35" width="5.16" height="2"></rect><rect x="35.13" y="10.35" width="5.16" height="2"></rect><rect x="16.58" y="10.35" width="5.16" height="2"></rect><rect x="41.32" y="10.35" width="5.16" height="2"></rect><rect x="47.51" y="10.35" width="5.16" height="2"></rect><rect x="22.76" y="10.35" width="5.16" height="2"></rect><rect x="5.98" y="21.05" width="2" height="5.13"></rect><rect x="5.98" y="27.2" width="2" height="5.13"></rect><rect x="5.98" y="57.96" width="2" height="5.13"></rect><rect x="5.98" y="51.81" width="2" height="5.13"></rect><rect x="5.98" y="45.66" width="2" height="5.13"></rect><rect x="5.98" y="39.5" width="2" height="5.13"></rect><rect x="5.98" y="33.35" width="2" height="5.13"></rect><path d="M6,20H8V18.71h6V12.35h1.54v-2H14V4.71H0v14H6ZM2,16.71v-10H12v10Z"></path><rect x="16.61" y="71.35" width="5.09" height="2"></rect><rect x="41.06" y="71.35" width="5.09" height="2"></rect><rect x="53.29" y="71.35" width="5.09" height="2"></rect><rect x="47.17" y="71.35" width="5.09" height="2"></rect><rect x="34.95" y="71.35" width="5.09" height="2"></rect><rect x="28.84" y="71.35" width="5.09" height="2"></rect><rect x="22.72" y="71.35" width="5.09" height="2"></rect><rect x="66.98" y="38.03" width="2" height="5.36"></rect><rect x="66.98" y="25.16" width="2" height="5.37"></rect><rect x="66.98" y="44.47" width="2" height="5.37"></rect><rect x="66.98" y="57.35" width="2" height="5.36"></rect><rect x="66.98" y="50.91" width="2" height="5.37"></rect><rect x="66.98" y="31.6" width="2" height="5.37"></rect><path d="M69,63.78H67v1.58H60.84v6H59.4v2h1.44v6h14v-14H69Zm3.86,3.58v10h-10v-10Z"></path><path d="M14,65.36H8V64.11H6v1.25H0v14H14v-6h1.59v-2H14Zm-2,12H2v-10H12Z"></path><path d="M80.86,6.51,75.1.75a2.14,2.14,0,0,0-3-.21l-9.81,9.81H59.88v2h.37l-13,13a1.89,1.89,0,0,0-.51,1.06L45.85,33a2.53,2.53,0,0,0,2.43,2.73l.27,0,6.64-.86a1.81,1.81,0,0,0,1.07-.52L67,23.64v.45h2V21.64L81.07,9.55A2.15,2.15,0,0,0,80.86,6.51ZM70.25,5.18l2.38,2.38L51.75,28.44l-2.38-2.38Zm-22,28.58a.48.48,0,0,1-.3-.16.45.45,0,0,1-.16-.3l.7-5.25,5,5Zm7.26-1.52-2.38-2.38L74.05,9l2.38,2.38ZM77.85,10,71.66,3.76,73.42,2a.51.51,0,0,1,.26.15l5.77,5.77a.51.51,0,0,1,.15.26Z"></path></g></g></svg>