<svg xmlns="http://www.w3.org/2000/svg" viewBox="0 0 85.17 65.77"><g id="Layer_2" data-name="Layer 2"><g id="Layer_1-2" data-name="Layer 1"><path d="M75.39,0H9.79A9.8,9.8,0,0,0,0,9.79V56a9.8,9.8,0,0,0,9.79,9.78h65.6A9.79,9.79,0,0,0,85.17,56V9.79A9.8,9.8,0,0,0,75.39,0ZM9.79,2.38h65.6A7.42,7.42,0,0,1,82.8,9.79v5.75H2.38V9.79A7.41,7.41,0,0,1,9.79,2.38Zm65.6,61H9.79A7.42,7.42,0,0,1,2.38,56V17.87H82.8V56A7.43,7.43,0,0,1,75.39,63.4Z"/><path d="M13.67,12.71a4,4,0,1,0-4-4A4,4,0,0,0,13.67,12.71Zm0-5.64A1.66,1.66,0,1,1,12,8.73,1.65,1.65,0,0,1,13.67,7.07Z"/><path d="M23.09,12.71a4,4,0,1,0-4-4A4,4,0,0,0,23.09,12.71Zm0-5.64a1.66,1.66,0,1,1-1.66,1.66A1.65,1.65,0,0,1,23.09,7.07Z"/><path d="M32.51,12.71a4,4,0,1,0-4-4A4,4,0,0,0,32.51,12.71Zm0-5.64a1.66,1.66,0,1,1-1.66,1.66A1.65,1.65,0,0,1,32.51,7.07Z"/></g></g></svg>