<svg xmlns="http://www.w3.org/2000/svg" viewBox="0 0 128 40.99"><defs><style>.cls-1{fill:#fff;}</style></defs><g id="Layer_2" data-name="Layer 2"><g id="Layer_1-2" data-name="Layer 1"><path class="cls-1" d="M22.86,23.43v-.89H11.78v.89h3.58v2.9a4.29,4.29,0,0,1-1.2,3.47,4.42,4.42,0,0,1-3,1c-2.32,0-3.88-.77-4.71-2.3S5.2,24.54,5.2,21.23V16.42c0-2.85.49-5,1.45-6.44s2.54-2.12,4.78-2.12a6.45,6.45,0,0,1,3.86,1.38c1.22.87,2.18,2.51,2.86,4.91h1V7.33h-.81L16.92,8.81A8.43,8.43,0,0,0,14.47,7.5,9.58,9.58,0,0,0,11.18,7a10.26,10.26,0,0,0-7.89,3.68A12.84,12.84,0,0,0,0,19.5a12.17,12.17,0,0,0,3.26,8.7,10.48,10.48,0,0,0,8.1,3.47,9.44,9.44,0,0,0,6.37-2.16,7.9,7.9,0,0,0,2.65-6.08Z"></path><path class="cls-1" d="M32.05,31.14H43.24v-.88h-2.8L32.37,7H31.13L22.68,30.26H19.85v.88h7.5v-.88H23.74L25.93,24h7.68l2.09,6.27H32.05Zm-5.73-8,3.58-9.88,3.29,9.88Z"></path><path class="cls-1" d="M61.16,28.38a5.65,5.65,0,0,1-4.71,1.88H51.89V8.39h3.68V7.5H43.89v.89h3.5V30.26h-3.5v.88H63.5l.38-8H62.79A8.41,8.41,0,0,1,61.16,28.38Z"></path><path class="cls-1" d="M72.56,20.42h4a12.08,12.08,0,0,0,6.79-1.7,5.48,5.48,0,0,0,2.51-4.81,5.37,5.37,0,0,0-2.47-4.85,13.2,13.2,0,0,0-7-1.56H64.56v.89h3.5V30.26h-3.5v.88H76.34v-.88H72.56Zm0-12h4.35a3.43,3.43,0,0,1,3,1.34,7.21,7.21,0,0,1,.92,4.07,7.58,7.58,0,0,1-1,4.32,3.47,3.47,0,0,1-3.11,1.41H72.56Z"></path><path class="cls-1" d="M91.74,2.69a1.9,1.9,0,0,1,1.13-.43,5.73,5.73,0,0,1,2.41.85A6,6,0,0,0,98,3.93a3.33,3.33,0,0,0,2.44-1A6,6,0,0,0,102,0h-1.2A2.5,2.5,0,0,1,100,1.31a1.77,1.77,0,0,1-1.1.42A5.43,5.43,0,0,1,96.44.88,6.08,6.08,0,0,0,93.68.07a3.33,3.33,0,0,0-2.44,1A6,6,0,0,0,89.76,4H91A2.18,2.18,0,0,1,91.74,2.69Z"></path><path class="cls-1" d="M96.8,7H95.56L87.1,30.26H84.27v.88h7.5v-.88H88.16L90.36,24H98l2.09,6.27H96.48v.88h11.18v-.88h-2.79Zm-6,16.14,3.57-9.88,3.29,9.88Z"></path><path class="cls-1" d="M124.67,10.65A10.2,10.2,0,0,0,117,7a10.09,10.09,0,0,0-7.72,3.72A12.54,12.54,0,0,0,106,19.32,12.49,12.49,0,0,0,109.28,28,10,10,0,0,0,117,31.67,10.17,10.17,0,0,0,124.67,28,12.38,12.38,0,0,0,128,19.32,12.51,12.51,0,0,0,124.67,10.65ZM122.8,23.53A8.77,8.77,0,0,1,121.35,29a6.16,6.16,0,0,1-8.78,0,8.81,8.81,0,0,1-1.41-5.42V15.11a8.78,8.78,0,0,1,1.41-5.41A5.18,5.18,0,0,1,117,7.86a5.33,5.33,0,0,1,4.42,1.84,8.89,8.89,0,0,1,1.42,5.41Z"></path><path class="cls-1" d="M34.22,40.44a1.09,1.09,0,0,1-.46.1,1.1,1.1,0,0,1-.91-.48,1.6,1.6,0,0,1-.32-1A1.57,1.57,0,0,1,32.94,38a1.12,1.12,0,0,1,.82-.37,1.2,1.2,0,0,1,.82.31,1.24,1.24,0,0,1,.21.27l.4-.21a1.52,1.52,0,0,0-.68-.64,1.72,1.72,0,0,0-.75-.18,1.54,1.54,0,0,0-1.16.53,2,2,0,0,0-.52,1.38,1.92,1.92,0,0,0,.52,1.37,1.54,1.54,0,0,0,1.16.54,1.77,1.77,0,0,0,1.44-.81L34.81,40A1.15,1.15,0,0,1,34.22,40.44Z"></path><path class="cls-1" d="M43.6,39.21a1,1,0,0,0,.6-.61.92.92,0,0,0,.07-.36,1,1,0,0,0-.39-.8,1.17,1.17,0,0,0-.77-.27H41.47V41h.45V39.3H43a1.64,1.64,0,0,1,.46.59,6.84,6.84,0,0,1,.33.94l.05.16h.47l-.09-.29A4.31,4.31,0,0,0,43.6,39.21Zm-.48-.36H41.91V37.62h1.2a.71.71,0,0,1,.59.27.57.57,0,0,1,.12.35.56.56,0,0,1-.31.51A.76.76,0,0,1,43.12,38.85Z"></path><polygon class="cls-1" points="50.54 37.39 50.54 40.76 50.54 40.99 50.99 40.99 50.99 40.76 50.99 37.39 50.99 37.17 50.54 37.17 50.54 37.39"></polygon><polygon class="cls-1" points="59.49 37.3 59.42 37.17 59.13 37.17 59.07 37.3 57.61 40.67 57.48 40.99 57.96 40.99 58.03 40.85 59.28 37.96 60.53 40.85 60.59 40.99 61.08 40.99 60.95 40.67 59.49 37.3"></polygon><polygon class="cls-1" points="69.04 37.17 68.59 37.17 67.57 37.17 67.34 37.17 67.34 37.62 67.57 37.62 68.59 37.62 68.59 40.76 68.59 40.99 69.04 40.99 69.04 40.76 69.04 37.62 70.04 37.62 70.27 37.62 70.27 37.17 70.04 37.17 69.04 37.17"></polygon><polygon class="cls-1" points="76.53 37.39 76.53 40.76 76.53 40.99 76.98 40.99 76.98 40.76 76.98 37.39 76.98 37.17 76.53 37.17 76.53 37.39"></polygon><polygon class="cls-1" points="86.3 37.3 85.05 40.2 83.79 37.3 83.73 37.17 83.24 37.17 83.38 37.48 84.84 40.85 84.9 40.99 85.2 40.99 85.26 40.85 86.71 37.48 86.85 37.17 86.36 37.17 86.3 37.3"></polygon><path class="cls-1" d="M94.23,37.17a1.54,1.54,0,0,0-1.16.53,2,2,0,0,0-.52,1.38,1.92,1.92,0,0,0,.52,1.37,1.54,1.54,0,0,0,1.16.54,1.56,1.56,0,0,0,1.17-.53,2,2,0,0,0,.52-1.38,2,2,0,0,0-.52-1.38A1.56,1.56,0,0,0,94.23,37.17Zm.83,3a1.11,1.11,0,0,1-.83.38,1.13,1.13,0,0,1-.91-.47,1.65,1.65,0,0,1-.32-1A1.53,1.53,0,0,1,93.41,38a1.12,1.12,0,0,1,.82-.37,1.11,1.11,0,0,1,.91.47,1.55,1.55,0,0,1,.33,1A1.53,1.53,0,0,1,95.06,40.16Z"></path></g></g></svg>