<svg xmlns="http://www.w3.org/2000/svg" viewBox="0 0 290 525.32"><defs><style>.cls-1{fill:#e3b42a;}</style></defs><g id="Layer_2" data-name="Layer 2"><g id="Layer_1-2" data-name="Layer 1"><path class="cls-1" d="M232.92,164.32a170.39,170.39,0,0,0-9.53,35.11A186.31,186.31,0,0,0,221,229.32c0,2.82.07,5.73.2,8.64a139,139,0,0,0,7,37.47c3.52,10.57,9,26.08,15.4,40.18,10.68,25.91,16.19,50.77,16.38,73.9v1.31c0,11.41-4.13,23.49-12.26,35.91-8,12.13-19.71,24.41-34,35.49-30.15,23.39-59.65,33.1-68.74,33.1s-38.59-9.71-68.74-33.1c-14.29-11.08-26-23.36-34-35.49C34.13,414.31,30,402.23,30,390.82c0-23.51,5.51-48.82,16.39-75.21,6.36-14.1,11.88-29.61,15.41-40.22a138.75,138.75,0,0,0,7-37.41c.13-2.93.2-5.84.2-8.66a186.31,186.31,0,0,0-2.39-29.89,170.56,170.56,0,0,0-9.53-35.11H232.92m20.08-30H37c-8.84,0-16,8.51-16,19a21.77,21.77,0,0,0,1.22,7.26q1.46,2.59,2.8,5.33a136.71,136.71,0,0,1,12,38.33,156.39,156.39,0,0,1,2,25.08q0,3.68-.17,7.29a108.62,108.62,0,0,1-5.5,29.33c-3.3,9.9-8.52,24.61-14.48,37.76C7,332.32,0,361.64,0,390.82c0,74.28,106,134.5,145,134.5s145-60.22,145-134.5c0-.52,0-1,0-1.56-.24-28.66-7.2-57.45-18.84-85.56-6-13.15-11.18-27.86-14.48-37.76a108.62,108.62,0,0,1-5.5-29.33Q251,233,251,229.32a156.39,156.39,0,0,1,2-25.08,136.71,136.71,0,0,1,12-38.33q1.35-2.73,2.8-5.33a21.77,21.77,0,0,0,1.22-7.26c0-10.49-7.16-19-16-19Z"/><path class="cls-1" d="M242.77,0a21.51,21.51,0,0,0-20.66,15.59L197.3,102.32H242l21.43-74.9A21.5,21.5,0,0,0,248.7.83,21.76,21.76,0,0,0,242.77,0Z"/></g></g></svg>